<?xml version="1.0" standalone="no"?>
<!DOCTYPE svg PUBLIC "-//W3C//DTD SVG 20010904//EN"
 "http://www.w3.org/TR/2001/REC-SVG-20010904/DTD/svg10.dtd">
<svg version="1.0" xmlns="http://www.w3.org/2000/svg"
 width="200.000000pt" height="200.000000pt" viewBox="0 0 200.000000 200.000000"
 preserveAspectRatio="xMidYMid meet">

<g transform="translate(0.000000,200.000000) scale(0.100000,-0.100000)"
fill="#000000" stroke="none">
<path d="M23 1993 c9 -2 25 -2 35 0 9 3 1 5 -18 5 -19 0 -27 -2 -17 -5z"/>
<path d="M115 1990 c-3 -6 -10 -8 -14 -6 -4 3 -8 -1 -8 -9 0 -8 5 -13 11 -12
6 1 12 -9 14 -23 2 -21 -1 -25 -23 -25 -14 0 -25 4 -25 9 0 4 -8 5 -17 2 -9
-4 -20 -1 -24 6 -4 7 -10 10 -13 7 -3 -3 3 -15 15 -27 11 -12 17 -27 14 -32
-3 -6 1 -7 9 -4 9 3 16 10 16 16 0 5 5 6 11 2 8 -4 7 -9 -2 -15 -12 -7 -11
-10 1 -21 8 -7 13 -12 11 -11 -2 2 -10 -2 -18 -9 -11 -9 -13 -8 -11 3 2 8 -3
13 -9 12 -7 -2 -21 12 -30 30 l-18 32 -3 -38 c-2 -21 3 -46 10 -55 7 -9 8 -13
2 -9 -6 3 -11 -1 -11 -9 0 -8 6 -13 12 -10 6 2 17 -5 24 -15 14 -23 55 -41 76
-33 26 11 16 24 -15 20 -17 -2 -29 1 -28 6 2 6 22 11 45 12 35 2 43 -1 47 -19
3 -12 11 -22 18 -23 7 0 23 -4 36 -7 26 -8 31 15 8 34 -8 7 -13 21 -11 31 3
13 -1 17 -11 13 -8 -3 -22 1 -31 8 -10 8 -14 9 -10 2 4 -6 3 -14 -2 -17 -5 -3
-11 0 -14 8 -4 9 -14 12 -27 9 -16 -4 -19 -2 -14 12 5 12 13 15 32 10 14 -3
28 -2 31 4 4 6 19 4 40 -6 27 -14 34 -14 41 -3 5 8 6 18 4 22 -3 4 2 8 11 8
11 0 15 5 12 14 -3 8 1 17 9 20 8 3 14 -1 14 -10 0 -9 5 -12 11 -8 6 3 15 1
19 -6 5 -8 24 -13 45 -12 86 3 84 58 -3 104 l-32 17 5 -27 c4 -21 2 -19 -9 8
-12 30 -15 32 -21 16 -8 -17 -9 -18 -21 -2 -9 13 -24 16 -66 14 -52 -3 -53 -3
-25 -17 15 -8 27 -18 27 -23 0 -5 -4 -6 -10 -3 -5 3 -10 -1 -10 -10 0 -9 5
-13 10 -10 12 8 40 -12 40 -28 0 -7 -4 -7 -12 1 -7 7 -23 12 -36 12 -13 0 -21
4 -17 9 3 5 -4 12 -15 16 -11 3 -19 12 -17 18 1 7 -4 11 -10 10 -7 -2 -12 2
-10 8 3 15 -19 23 -28 9z"/>
<path d="M386 1985 c7 -16 54 -21 54 -6 0 5 8 12 18 14 9 3 -4 5 -30 6 -38 1
-46 -2 -42 -14z"/>
<path d="M550 1991 c0 -5 6 -12 13 -15 9 -4 9 -8 1 -11 -7 -3 -9 -16 -6 -27 4
-17 2 -20 -13 -14 -14 5 -16 4 -7 -7 9 -10 8 -17 -1 -26 -9 -10 -9 -11 5 -6
11 5 20 -1 28 -17 10 -20 10 -21 -3 -6 -15 19 -27 14 -27 -12 0 -15 12 -19 67
-21 12 -1 24 -8 27 -16 4 -10 15 -13 36 -9 16 3 44 9 60 12 24 4 29 9 20 19
-6 7 -9 18 -8 25 2 7 -3 15 -11 17 -9 4 -11 0 -6 -16 3 -11 4 -21 1 -21 -3 0
-10 18 -16 41 -10 36 -13 39 -27 27 -14 -11 -16 -11 -10 4 3 9 2 18 -3 20 -4
2 -10 12 -12 23 -4 27 -20 44 -35 38 -9 -4 -8 -12 5 -31 9 -14 12 -23 5 -19
-6 4 -14 1 -17 -5 -4 -9 -5 -8 -4 2 4 33 -13 60 -38 60 -13 0 -24 -4 -24 -9z
m150 -111 c0 -5 -2 -10 -4 -10 -3 0 -8 5 -11 10 -3 6 -1 10 4 10 6 0 11 -4 11
-10z m-60 -31 c0 -6 -4 -7 -10 -4 -5 3 -10 11 -10 16 0 6 5 7 10 4 6 -3 10
-11 10 -16z m27 -1 c-3 -8 -6 -5 -6 6 -1 11 2 17 5 13 3 -3 4 -12 1 -19z"/>
<path d="M765 1990 c-16 -25 -15 -84 1 -108 l17 -26 9 24 c6 16 5 26 -4 32
-10 6 -10 8 2 8 12 1 12 3 -2 11 -13 7 -16 17 -11 39 5 30 0 39 -12 20z"/>
<path d="M1017 1989 c7 -7 15 -10 18 -7 3 3 -2 9 -12 12 -14 6 -15 5 -6 -5z"/>
<path d="M1046 1979 c-14 -17 -15 -24 -5 -33 9 -8 10 -8 5 1 -3 6 -2 14 4 18
5 3 10 -1 10 -9 0 -24 13 -19 26 9 19 40 -9 50 -40 14z m34 7 c0 -3 -4 -8 -10
-11 -5 -3 -10 -1 -10 4 0 6 5 11 10 11 6 0 10 -2 10 -4z"/>
<path d="M1763 1933 c-38 -38 -44 -48 -30 -51 9 -2 15 -7 12 -12 -3 -5 -11 -7
-18 -4 -16 6 -42 -23 -50 -53 -5 -23 7 -31 18 -13 4 6 11 7 17 4 7 -4 8 -2 4
4 -4 7 0 12 10 12 10 0 15 3 12 6 -3 3 6 18 20 33 51 53 60 68 51 82 -4 8 -3
19 3 26 25 30 -5 9 -49 -34z"/>
<path d="M841 1947 c-15 -15 -15 -50 1 -41 7 4 8 3 4 -5 -6 -9 -11 -9 -21 -1
-9 8 -14 6 -19 -7 -4 -10 -4 -14 0 -11 8 8 34 -16 34 -32 0 -8 6 -8 20 0 14 7
20 7 20 0 0 -5 9 -10 19 -10 18 0 32 19 30 43 0 7 -4 2 -9 -10 -8 -20 -12 -21
-39 -10 -36 13 -39 23 -11 30 15 4 18 10 13 24 -12 31 -29 43 -42 30z"/>
<path d="M1090 1925 c0 -8 4 -15 10 -15 5 0 7 7 4 15 -4 8 -8 15 -10 15 -2 0
-4 -7 -4 -15z"/>
<path d="M1602 1928 c-7 -7 -12 -18 -12 -25 0 -7 -9 -21 -21 -32 -12 -11 -18
-24 -14 -31 8 -12 45 30 45 52 0 8 5 19 12 26 6 6 9 14 7 17 -3 2 -11 -1 -17
-7z"/>
<path d="M501 1921 c-10 -6 -11 -17 -6 -37 l7 -29 9 24 c13 33 8 53 -10 42z"/>
<path d="M1317 1913 c-4 -3 -7 -11 -7 -17 0 -6 5 -5 12 2 6 6 9 14 7 17 -3 3
-9 2 -12 -2z"/>
<path d="M1971 1906 c-9 -10 -8 -15 3 -19 9 -4 18 -1 22 5 4 7 3 8 -4 4 -7 -4
-12 -3 -12 3 0 5 6 12 13 14 7 4 8 6 1 6 -6 1 -17 -5 -23 -13z"/>
<path d="M1423 1898 c-13 -6 -23 -15 -23 -20 0 -5 -4 -6 -10 -3 -5 3 -10 -1
-10 -9 0 -17 -20 -18 -32 -2 -4 6 -13 4 -22 -3 -12 -10 -16 -10 -16 -2 0 7 -4
9 -10 6 -5 -3 -10 -1 -10 6 0 7 -2 10 -5 7 -10 -10 6 -56 21 -62 10 -4 12 -2
8 6 -5 8 0 9 17 5 13 -4 29 -7 34 -7 6 0 21 -24 35 -54 13 -30 28 -52 32 -50
5 3 6 10 3 15 -4 5 0 9 7 9 8 1 6 6 -5 14 -16 12 -17 18 -7 38 7 13 26 37 44
53 17 17 32 39 33 50 1 19 1 19 -11 2 -12 -15 -15 -15 -26 -2 -14 17 -17 17
-47 3z m44 -45 c-16 -16 -17 -15 -17 17 0 32 1 33 17 17 16 -16 16 -18 0 -34z
m-37 -8 c0 -8 -4 -15 -10 -15 -5 0 -10 -9 -10 -20 0 -27 -15 -25 -17 2 -2 23
13 48 28 48 5 0 9 -7 9 -15z"/>
<path d="M970 1869 c0 -5 5 -7 10 -4 6 3 10 8 10 11 0 2 -4 4 -10 4 -5 0 -10
-5 -10 -11z"/>
<path d="M1040 1869 c0 -5 5 -7 10 -4 6 3 10 8 10 11 0 2 -4 4 -10 4 -5 0 -10
-5 -10 -11z"/>
<path d="M800 1858 c0 -8 7 -15 15 -15 18 0 15 19 -3 25 -7 2 -12 -3 -12 -10z"/>
<path d="M475 1850 c3 -5 8 -10 11 -10 2 0 4 5 4 10 0 6 -5 10 -11 10 -5 0 -7
-4 -4 -10z"/>
<path d="M1231 1837 c6 -10 9 -27 6 -36 -4 -15 -1 -16 19 -7 24 11 32 26 15
26 -5 0 -11 8 -13 18 -3 10 -12 19 -21 19 -13 0 -14 -4 -6 -20z"/>
<path d="M317 1844 c-9 -10 6 -54 19 -54 8 0 14 -6 15 -12 0 -7 5 -3 11 10 6
12 17 22 25 22 8 0 12 4 9 9 -4 5 -17 8 -31 7 -13 -2 -22 0 -20 4 5 9 -20 21
-28 14z"/>
<path d="M1960 1841 c0 -6 5 -13 10 -16 6 -3 10 1 10 9 0 9 -4 16 -10 16 -5 0
-10 -4 -10 -9z"/>
<path d="M461 1819 c-1 -23 3 -26 28 -25 31 1 32 26 1 26 -10 0 -21 6 -23 13
-3 6 -6 0 -6 -14z"/>
<path d="M1526 1825 c8 -20 -13 -45 -31 -38 -9 3 -17 -5 -21 -23 -5 -18 -3
-29 4 -32 16 -5 15 -29 0 -36 -7 -3 -2 -3 12 0 14 3 30 11 35 18 6 7 19 16 30
20 18 8 18 9 -9 19 l-29 10 24 13 c13 7 18 13 12 14 -7 0 -13 11 -13 25 0 14
-4 25 -10 25 -5 0 -7 -7 -4 -15z"/>
<path d="M1162 1814 c-5 -9 -7 -25 -4 -36 6 -25 45 -20 50 6 4 18 3 19 -13 3
-22 -22 -22 -22 -17 13 5 33 -2 39 -16 14z"/>
<path d="M1502 1810 c0 -14 2 -19 5 -12 2 6 2 18 0 25 -3 6 -5 1 -5 -13z"/>
<path d="M1100 1796 c0 -16 -6 -26 -15 -26 -8 0 -15 -9 -15 -20 0 -13 5 -18
15 -14 8 4 15 10 15 16 0 5 5 6 10 3 6 -4 7 -11 4 -17 -4 -7 -2 -8 4 -4 8 5
12 0 12 -13 0 -12 5 -21 10 -21 17 0 11 26 -10 45 -13 12 -18 25 -14 40 3 13
1 26 -5 29 -7 5 -11 -3 -11 -18z"/>
<path d="M1865 1800 c3 -5 -3 -15 -13 -22 -25 -17 -40 -60 -18 -52 8 3 18 14
21 25 4 10 10 19 15 19 5 0 14 8 19 18 8 14 6 18 -10 19 -11 1 -17 -2 -14 -7z"/>
<path d="M1440 1790 c0 -5 5 -10 11 -10 5 0 7 5 4 10 -3 6 -8 10 -11 10 -2 0
-4 -4 -4 -10z"/>
<path d="M247 1782 c-9 -14 5 -62 18 -62 7 0 16 11 19 25 4 14 11 23 16 20 6
-3 10 -4 10 -1 0 3 -9 10 -20 16 -16 9 -19 8 -13 -6 4 -12 2 -15 -8 -12 -8 3
-13 11 -11 17 2 13 -4 15 -11 3z"/>
<path d="M1040 1770 c0 -11 4 -20 9 -20 5 0 11 9 14 20 3 13 0 20 -9 20 -8 0
-14 -9 -14 -20z"/>
<path d="M1013 1765 c0 -8 4 -15 9 -15 4 0 8 4 8 9 0 6 -4 12 -8 15 -5 3 -9
-1 -9 -9z"/>
<path d="M1702 1771 c-7 -4 -25 -6 -39 -3 -21 4 -25 2 -20 -11 4 -12 2 -14
-10 -10 -12 5 -14 3 -8 -8 6 -11 5 -11 -5 -2 -10 9 -16 8 -27 -3 -16 -15 -11
-44 6 -44 6 0 8 7 5 15 -5 11 -2 13 10 9 9 -3 16 -12 16 -18 0 -7 13 -24 28
-39 31 -29 61 -30 93 -1 16 14 17 20 6 32 -7 10 -8 13 -1 9 7 -4 14 2 17 13 8
30 -11 24 -32 -10 -16 -27 -20 -29 -31 -15 -10 12 -10 18 1 32 12 15 12 16 -1
8 -9 -5 -8 0 4 13 11 12 15 22 10 22 -5 0 -2 5 6 10 13 9 13 10 0 10 -8 0 -21
-4 -28 -9z"/>
<path d="M1925 1770 c-3 -5 -2 -10 4 -10 5 0 13 5 16 10 3 6 2 10 -4 10 -5 0
-13 -4 -16 -10z"/>
<path d="M456 1745 c-8 -33 1 -48 25 -42 12 3 20 -2 24 -14 4 -11 16 -19 27
-19 17 0 18 2 8 15 -7 8 -9 15 -5 15 4 0 2 6 -4 13 -6 8 -9 16 -6 19 3 3 -1
11 -10 18 -13 11 -14 10 -10 -3 4 -8 2 -18 -4 -22 -6 -3 -12 -1 -12 4 -1 6 -2
16 -3 23 -2 23 -24 18 -30 -7z"/>
<path d="M610 1759 c0 -5 5 -7 10 -4 6 3 10 8 10 11 0 2 -4 4 -10 4 -5 0 -10
-5 -10 -11z"/>
<path d="M1310 1755 c0 -9 5 -15 11 -13 6 2 11 8 11 13 0 5 -5 11 -11 13 -6 2
-11 -4 -11 -13z"/>
<path d="M1871 1756 c-11 -13 -5 -46 8 -46 3 0 13 5 21 10 12 8 12 10 1 10
-10 0 -11 3 -2 14 9 10 8 15 -3 19 -8 3 -19 0 -25 -7z"/>
<path d="M1260 1749 c0 -5 5 -7 10 -4 6 3 10 8 10 11 0 2 -4 4 -10 4 -5 0 -10
-5 -10 -11z"/>
<path d="M1735 1739 c-4 -6 -5 -12 -2 -15 2 -3 7 2 10 11 7 17 1 20 -8 4z"/>
<path d="M127 1733 c-12 -12 -7 -22 13 -28 26 -8 58 20 34 29 -21 8 -39 8 -47
-1z"/>
<path d="M1928 1728 c5 -5 16 -8 23 -6 8 3 3 7 -10 11 -17 4 -21 3 -13 -5z"/>
<path d="M0 1714 c0 -8 5 -12 10 -9 6 4 8 11 5 16 -9 14 -15 11 -15 -7z"/>
<path d="M593 1720 c-13 -5 -23 -12 -23 -15 0 -4 5 -3 10 0 6 3 10 -1 10 -10
0 -9 -4 -13 -10 -10 -6 4 -7 -1 -3 -11 4 -12 3 -15 -5 -10 -8 5 -10 2 -6 -8 3
-9 11 -16 16 -16 6 0 5 -6 -2 -15 -7 -8 -10 -21 -7 -29 4 -10 0 -12 -16 -8
-12 3 -16 7 -9 10 16 5 5 22 -14 22 -8 0 -13 -3 -11 -7 3 -5 -1 -13 -8 -20
-10 -10 -14 -9 -19 2 -3 8 -10 15 -16 15 -6 0 -9 -4 -6 -8 2 -4 1 -14 -5 -22
-7 -13 -9 -13 -9 0 0 13 -1 13 -10 0 -7 -11 -10 -12 -10 -2 0 23 -34 57 -57
58 -12 0 -20 -3 -17 -8 3 -5 0 -17 -8 -26 -12 -15 -11 -16 5 -3 9 8 21 11 25
7 4 -4 -1 -12 -10 -17 -16 -9 -16 -11 3 -30 17 -17 18 -23 7 -37 -9 -11 -10
-14 0 -8 7 4 12 2 12 -6 0 -8 9 -20 20 -28 12 -9 20 -26 20 -44 0 -16 3 -26 7
-23 3 4 13 1 21 -6 13 -10 15 -9 10 11 -7 24 14 30 42 12 13 -8 12 -12 -6 -31
-18 -17 -25 -19 -42 -10 -18 10 -20 8 -18 -14 2 -13 -1 -22 -5 -19 -5 3 -12
-2 -15 -10 -3 -9 -11 -16 -16 -16 -6 0 -8 7 -4 15 3 8 1 15 -4 15 -6 0 -10 4
-10 10 0 5 8 7 18 3 16 -5 16 -5 -1 8 -10 8 -19 24 -20 37 0 12 -5 22 -9 22
-4 0 -8 10 -8 23 -1 13 -16 34 -37 52 -20 17 -48 42 -63 57 -21 21 -30 24 -40
15 -10 -10 -12 -8 -6 8 6 15 4 17 -5 8 -6 -6 -18 -9 -27 -6 -10 4 -13 2 -8 -5
9 -16 3 -15 -42 3 l-37 16 35 -35 c24 -23 39 -31 47 -24 7 5 13 5 17 -1 3 -5
1 -11 -6 -13 -6 -2 -12 -12 -14 -22 -2 -14 3 -16 28 -11 21 5 28 4 24 -4 -4
-6 -14 -11 -23 -11 -14 0 -14 -2 0 -24 18 -26 11 -42 -10 -25 -10 9 -13 6 -13
-15 0 -14 5 -26 12 -26 6 0 8 -3 5 -6 -4 -4 3 -16 15 -26 17 -15 19 -21 9 -27
-8 -5 -9 -11 -3 -15 5 -3 12 1 16 9 8 23 28 18 21 -5 -4 -13 -1 -22 9 -26 9
-3 16 -12 16 -20 0 -11 -5 -11 -28 -1 -15 6 -32 18 -38 26 -9 12 -12 11 -17
-3 -4 -10 -12 -14 -17 -11 -8 5 -7 11 1 21 10 12 9 13 -5 8 -11 -4 -16 -1 -16
14 0 11 -5 22 -12 24 -7 3 -5 7 6 11 11 5 15 3 10 -5 -4 -7 -3 -8 5 -4 9 6 9
11 1 21 -6 7 -8 21 -4 31 5 18 5 18 -10 0 -12 -15 -16 -16 -18 -5 0 8 -2 19
-3 24 -2 6 -3 16 -4 24 -1 11 -8 8 -25 -8 -14 -13 -29 -20 -35 -16 -15 9 -3
28 13 22 9 -4 11 2 8 19 -2 13 -8 21 -13 18 -5 -3 -9 0 -9 6 0 7 -7 10 -15 6
-18 -7 -20 10 -2 18 6 3 0 4 -16 1 -25 -5 -27 -3 -22 18 5 19 2 25 -14 30 -19
5 -20 1 -20 -109 0 -71 3 -112 9 -109 6 4 10 2 10 -4 0 -5 -4 -12 -9 -16 -17
-10 -8 -45 12 -45 14 0 17 -5 13 -16 -6 -15 -4 -15 11 -3 13 11 15 11 9 1 -6
-11 0 -12 28 -8 21 4 36 2 36 -4 0 -6 -6 -10 -12 -11 -24 -2 -73 2 -92 8 -11
3 -16 1 -12 -5 6 -10 86 -27 102 -22 7 2 24 -20 24 -32 0 -5 -8 -9 -17 -9 -10
-1 -2 -5 17 -9 23 -5 27 -8 13 -9 -13 0 -23 -5 -23 -9 0 -5 12 -8 27 -7 16 1
19 0 8 -2 -34 -8 -40 -21 -19 -44 12 -14 13 -19 4 -14 -8 5 -21 17 -29 28 -10
13 -20 17 -40 12 -14 -3 -21 -2 -16 2 7 5 2 17 -12 32 -13 13 -23 20 -23 14 0
-5 3 -13 7 -17 4 -3 7 -15 8 -25 1 -13 -4 -17 -17 -13 -16 4 -18 -1 -16 -29 3
-43 20 -56 69 -53 32 2 36 0 26 -12 -31 -34 -37 -44 -29 -44 4 0 13 5 19 11 8
8 14 5 23 -11 6 -12 9 -24 6 -27 -9 -9 32 -34 64 -39 17 -3 39 2 55 12 21 13
31 15 50 6 21 -10 26 -8 34 7 8 14 4 26 -14 51 -13 18 -27 45 -30 61 -4 16
-15 35 -25 42 -16 11 -17 16 -7 34 7 11 22 38 34 59 49 89 85 104 249 104 81
0 124 4 124 11 0 5 -4 8 -10 4 -5 -3 -18 -1 -30 5 -48 24 -56 27 -72 24 -9 -1
-19 5 -22 13 -3 8 -11 11 -18 7 -7 -4 -4 2 6 15 15 16 21 18 27 9 7 -10 11
-10 21 0 9 9 9 12 -1 12 -7 0 -11 9 -9 23 2 15 -2 21 -12 19 -12 -3 -13 -1 -2
9 6 7 12 20 12 29 0 13 -1 13 -10 0 -8 -12 -10 -10 -10 10 0 20 -2 22 -10 10
-7 -10 -10 -11 -11 -2 -1 6 -2 18 -3 25 -4 20 5 29 18 18 12 -10 43 -18 74
-20 13 -1 17 -31 5 -31 -5 0 -9 -19 -11 -41 -1 -23 -7 -50 -13 -60 -6 -13 -6
-19 1 -19 5 0 10 5 10 11 0 5 4 7 10 4 6 -4 8 7 4 27 -4 26 -3 30 5 18 9 -12
10 -8 5 15 -7 29 -6 29 12 14 10 -9 25 -14 33 -11 8 2 20 -4 28 -14 8 -11 16
-18 18 -16 14 7 24 0 18 -15 -5 -12 -3 -14 7 -8 10 6 12 4 7 -8 -4 -10 -1 -17
6 -17 8 0 7 -4 -3 -10 -8 -5 -11 -12 -8 -16 4 -3 0 -13 -8 -21 -12 -13 -17
-13 -31 -1 -14 11 -16 11 -11 -2 3 -9 20 -16 41 -18 30 -3 36 0 31 12 -4 10
-1 16 10 16 10 0 13 -6 10 -15 -5 -13 7 -15 75 -15 50 0 81 4 81 11 0 5 4 8 9
5 5 -4 7 3 4 15 -3 11 -9 17 -12 11 -7 -11 -51 -23 -52 -14 -7 49 -3 82 9 77
7 -3 10 0 7 6 -4 5 -15 7 -26 4 -15 -5 -17 -3 -12 10 5 15 3 15 -16 4 -11 -8
-21 -17 -21 -22 0 -4 5 -5 12 -1 7 4 8 3 4 -4 -10 -16 -46 7 -39 25 6 15 -13
18 -22 3 -9 -15 -25 -2 -18 16 3 9 0 14 -8 12 -8 -2 -14 5 -14 16 0 21 -51 64
-62 52 -5 -4 -1 -13 8 -19 14 -10 14 -14 3 -25 -12 -11 -16 -9 -22 9 -8 20 -9
20 -25 4 -19 -19 -23 -6 -4 14 10 11 9 12 -2 6 -11 -6 -13 -3 -9 13 4 15 2 22
-8 22 -16 0 -19 26 -4 35 6 4 8 10 6 14 -3 4 -1 13 4 21 7 11 16 12 49 1 23
-6 41 -16 41 -21 0 -6 10 -10 23 -10 18 0 19 -2 7 -10 -13 -9 -8 -14 12 -12 3
1 11 -5 17 -12 10 -12 6 -13 -21 -6 -63 15 -93 20 -78 14 8 -4 25 -16 38 -28
18 -16 25 -18 31 -7 6 10 16 8 46 -8 21 -11 43 -17 48 -14 6 3 7 1 3 -5 -4 -7
-3 -12 3 -12 5 0 12 4 16 10 3 6 15 6 29 0 13 -5 27 -6 30 -3 3 4 6 -2 6 -12
0 -21 65 -85 86 -85 8 0 14 -6 14 -12 1 -8 6 -5 15 6 7 10 18 15 23 12 6 -3
13 0 15 6 4 10 6 10 6 0 1 -7 6 -10 11 -7 20 13 9 23 -20 19 -17 -3 -30 -1
-30 5 0 6 7 11 15 11 9 0 15 9 15 21 0 14 -5 19 -14 16 -7 -3 -18 -1 -23 4 -5
5 -21 5 -39 0 -29 -8 -30 -7 -26 15 2 13 8 21 14 18 5 -3 16 0 24 7 12 10 17
8 30 -7 11 -14 17 -15 20 -6 3 6 12 12 20 12 9 0 12 5 9 10 -5 8 -11 7 -20 0
-11 -9 -20 -6 -39 13 -17 18 -28 21 -35 14 -6 -6 -11 -7 -12 -1 -5 59 -9 66
-36 70 -27 4 -51 -14 -58 -45 l-6 -29 -35 36 c-19 20 -32 42 -29 50 3 7 5 16
5 20 0 3 7 -3 15 -14 8 -10 15 -14 15 -7 0 6 -7 18 -15 26 -11 12 -12 17 -2
20 7 3 5 6 -5 6 -9 1 -24 8 -33 17 -15 15 -16 14 -10 -12 6 -26 5 -27 -8 -11
-17 21 -39 23 -31 2 7 -18 0 -19 -27 -5 -14 8 -19 7 -19 -2 0 -10 -3 -9 -9 1
-5 8 -6 21 -3 30 5 13 3 13 -12 -1 -13 -14 -22 -16 -37 -7 -11 5 -17 14 -14
20 7 11 7 11 -22 -1z m20 -25 c4 -8 3 -16 -1 -19 -4 -3 -9 4 -9 15 -2 23 3 25
10 4z m41 -41 c4 -10 1 -14 -6 -12 -15 5 -23 28 -10 28 5 0 13 -7 16 -16z
m124 -39 c-3 -3 -9 2 -12 12 -6 14 -5 15 5 6 7 -7 10 -15 7 -18z m-3 -25 c3
-5 -1 -10 -9 -10 -9 0 -16 5 -16 10 0 6 4 10 9 10 6 0 13 -4 16 -10z m143 -43
c2 -17 8 -25 14 -21 7 5 8 2 3 -5 -9 -15 -55 24 -55 46 0 27 35 9 38 -20z m32
23 c0 -5 -2 -10 -4 -10 -3 0 -8 5 -11 10 -3 6 -1 10 4 10 6 0 11 -4 11 -10z
m-929 -37 c-12 -20 -14 -14 -5 12 4 9 9 14 11 11 3 -2 0 -13 -6 -23z m544 17
c3 -6 -1 -7 -9 -4 -18 7 -21 14 -7 14 6 0 13 -4 16 -10z m-330 -20 c-3 -5 -14
-10 -23 -9 -14 0 -13 2 3 9 27 11 27 11 20 0z m-160 -61 c-4 -5 -12 -9 -18 -8
-9 0 -8 2 1 6 6 2 9 10 6 15 -4 7 -2 8 5 4 6 -4 9 -12 6 -17z m-34 -142 c-13
-13 -26 -3 -16 12 3 6 11 8 17 5 6 -4 6 -10 -1 -17z m295 -34 c-11 -11 -19 6
-11 24 8 17 8 17 12 0 3 -10 2 -21 -1 -24z m-101 -13 c3 -5 1 -10 -4 -10 -6 0
-11 5 -11 10 0 6 2 10 4 10 3 0 8 -4 11 -10z m-17 -251 c-9 -6 -7 -9 9 -9 12
0 25 -4 28 -10 9 -14 -2 -12 -42 6 -23 11 -30 19 -22 25 7 4 19 5 26 2 12 -5
12 -7 1 -14z m-78 -34 c11 -13 10 -14 -4 -9 -9 3 -16 10 -16 15 0 13 6 11 20
-6z"/>
<path d="M1541 1713 c-13 -11 -22 -27 -20 -37 4 -16 6 -16 27 4 20 19 22 19
23 3 0 -10 3 -13 5 -7 3 6 1 21 -4 33 -8 22 -8 22 -31 4z"/>
<path d="M90 1710 c0 -5 5 -10 10 -10 6 0 10 5 10 10 0 6 -4 10 -10 10 -5 0
-10 -4 -10 -10z"/>
<path d="M1278 1698 c2 -10 8 -18 12 -18 4 0 10 8 12 18 3 12 -1 18 -12 18
-11 0 -15 -6 -12 -18z"/>
<path d="M1032 1693 c-21 -22 -8 -38 42 -50 28 -6 43 -6 39 0 -3 5 0 13 7 17
8 5 9 16 5 30 l-7 23 -13 -23 c-8 -14 -15 -19 -19 -11 -14 22 -40 29 -54 14z"/>
<path d="M1785 1699 c-10 -15 3 -25 16 -12 7 7 7 13 1 17 -6 3 -14 1 -17 -5z"/>
<path d="M1957 1682 c-21 -23 -7 -47 22 -37 24 7 29 35 5 35 -8 0 -12 5 -9 10
10 16 -1 12 -18 -8z"/>
<path d="M450 1681 c0 -7 -7 -11 -15 -8 -20 8 -27 -7 -16 -35 8 -19 10 -20 10
-4 1 10 9 25 18 32 10 7 15 16 10 20 -4 4 -7 2 -7 -5z"/>
<path d="M1445 1680 c3 -5 8 -10 11 -10 2 0 4 5 4 10 0 6 -5 10 -11 10 -5 0
-7 -4 -4 -10z"/>
<path d="M0 1670 c0 -5 5 -10 11 -10 5 0 7 5 4 10 -3 6 -8 10 -11 10 -2 0 -4
-4 -4 -10z"/>
<path d="M246 1668 c4 -6 0 -14 -7 -19 -9 -6 -4 -8 17 -6 34 2 36 22 3 30 -11
3 -17 1 -13 -5z"/>
<path d="M1893 1616 c-32 -21 -42 -36 -24 -36 5 0 16 6 23 13 7 8 21 13 30 11
10 -1 22 4 28 11 19 22 -22 23 -57 1z"/>
<path d="M1151 1589 c-13 -11 -18 -19 -10 -19 21 0 42 16 38 28 -2 6 -14 2
-28 -9z"/>
<path d="M1073 1585 c0 -8 4 -15 9 -15 4 0 8 4 8 9 0 6 -4 12 -8 15 -5 3 -9
-1 -9 -9z"/>
<path d="M1750 1593 c0 -7 -9 -13 -20 -13 -10 0 -24 -9 -30 -20 -6 -11 -9 -20
-8 -21 21 -5 158 -2 158 4 0 4 10 7 21 7 17 0 19 -3 10 -13 -8 -10 -7 -17 2
-27 9 -10 9 -11 0 -6 -7 4 -13 3 -13 -2 0 -9 23 -22 37 -22 3 0 3 9 0 20 -3
13 2 25 13 33 18 13 18 14 2 28 -10 8 -33 15 -51 16 -26 1 -31 -1 -20 -9 11
-8 10 -9 -4 -4 -10 3 -21 6 -24 6 -3 0 -1 6 5 13 9 11 5 13 -18 13 -16 0 -29
-2 -28 -5 2 -20 -4 -22 -17 -5 -8 11 -15 14 -15 7z"/>
<path d="M1947 1593 c-14 -14 -7 -32 10 -26 11 4 13 8 5 11 -7 2 -10 8 -6 13
6 10 0 12 -9 2z"/>
<path d="M306 1581 c-4 -7 -5 -15 -2 -18 9 -9 19 4 14 18 -4 11 -6 11 -12 0z"/>
<path d="M1102 1563 c1 -4 -4 -18 -11 -31 -9 -18 -10 -27 -1 -37 7 -8 9 -19 5
-25 -3 -5 -1 -10 4 -10 6 0 11 -6 11 -14 0 -8 5 -18 10 -21 6 -4 10 -3 9 2 -5
19 13 41 28 36 11 -4 14 -2 9 5 -5 8 -2 10 8 6 9 -3 16 -12 16 -20 0 -11 -7
-13 -27 -8 -16 4 -24 3 -20 -2 5 -5 12 -9 16 -9 20 0 40 -37 42 -77 3 -49 -5
-68 -27 -68 -8 0 -12 -5 -9 -11 5 -7 15 -5 31 5 19 14 65 16 284 16 l260 0 0
-55 c0 -30 5 -55 10 -55 6 0 10 7 10 15 0 8 5 15 11 15 5 0 7 5 4 10 -3 6 2
10 12 10 17 1 17 1 1 11 -22 12 -23 39 -2 39 8 0 13 4 10 9 -4 5 2 7 12 4 10
-2 24 3 31 11 8 9 22 16 33 16 10 0 16 5 13 10 -3 6 3 10 14 10 12 0 21 4 21
9 0 9 -53 7 -69 -3 -4 -3 -19 6 -31 19 -13 14 -32 25 -42 25 -10 0 -18 7 -18
15 0 8 6 15 13 15 9 0 9 2 -1 9 -7 4 -12 14 -10 22 2 10 -6 13 -31 11 -19 -1
-39 -6 -45 -11 -13 -10 -39 13 -28 24 4 4 -6 -1 -23 -11 -16 -10 -26 -13 -21
-6 6 10 1 11 -21 7 -21 -5 -24 -4 -13 4 8 6 10 11 4 11 -16 0 -34 -22 -34 -42
0 -10 7 -18 17 -18 9 0 25 -7 35 -17 17 -15 18 -15 18 0 0 14 10 17 55 17 42
0 55 -3 55 -15 0 -9 -9 -15 -22 -16 l-23 0 23 -9 c31 -13 40 -40 18 -56 -21
-15 -96 -10 -108 8 -6 10 -8 10 -8 1 0 -9 -20 -13 -65 -13 -36 0 -65 4 -65 9
0 5 -14 3 -30 -6 -40 -19 -88 -9 -100 22 -7 18 -14 22 -32 17 l-23 -7 23 -3
c12 -2 22 -10 22 -18 0 -11 -15 -14 -65 -14 -36 0 -65 4 -65 8 0 13 35 42 51
42 8 0 21 5 29 11 11 7 3 8 -28 4 -39 -6 -43 -5 -40 11 2 15 14 20 51 22 27 2
55 -2 63 -9 11 -9 17 -9 28 0 8 7 36 11 64 9 39 -2 48 -6 45 -18 -3 -10 -1 -9
7 3 6 9 22 17 35 17 14 0 25 5 25 11 0 7 -11 8 -30 4 -26 -6 -30 -4 -30 14 0
11 -5 23 -10 26 -6 4 -8 11 -5 16 4 5 -1 12 -9 15 -9 3 -16 12 -16 20 0 18
-26 18 -37 1 -4 -8 -16 -17 -27 -20 -12 -5 -17 -14 -13 -27 3 -11 1 -18 -3
-15 -5 3 -11 1 -15 -5 -3 -5 -13 -10 -22 -10 -14 0 -14 3 2 20 16 18 16 20 2
20 -10 0 -17 -4 -17 -8 0 -12 -44 -12 -51 0 -4 6 -18 13 -30 15 -29 4 -38 19
-31 47 5 18 3 19 -10 9 -8 -7 -17 -11 -19 -8 -3 2 -5 -4 -5 -15 0 -10 4 -16 8
-14 4 3 8 0 8 -5 0 -6 -7 -11 -15 -11 -8 0 -15 -4 -15 -10 0 -5 -5 -10 -11
-10 -7 0 -9 9 -6 21 3 12 0 22 -9 26 -8 3 -12 9 -9 13 3 5 1 12 -5 15 -6 4 -9
3 -8 -2z m12 -48 c-4 -8 -8 -15 -10 -15 -2 0 -4 7 -4 15 0 8 4 15 10 15 5 0 7
-7 4 -15z m336 -36 c0 -11 -4 -17 -10 -14 -5 3 -10 1 -10 -5 0 -7 -5 -6 -13 2
-10 9 -11 16 -3 25 17 19 36 15 36 -8z m386 -144 c3 -18 -10 -19 -37 -4 -20
10 -20 11 -2 24 19 15 35 6 39 -20z m-76 -4 c0 -6 -4 -13 -10 -16 -5 -3 -10 1
-10 9 0 9 5 16 10 16 6 0 10 -4 10 -9z"/>
<path d="M1377 1559 c-21 -12 -23 -41 -3 -33 13 5 30 33 24 40 -2 1 -11 -2
-21 -7z"/>
<path d="M140 1530 c-9 -6 -7 -13 9 -29 11 -11 21 -30 21 -41 0 -11 5 -20 11
-20 6 0 9 9 6 20 -3 10 0 21 7 24 7 3 6 5 -2 5 -7 1 -20 7 -28 15 -12 13 -12
15 4 18 15 3 15 4 1 10 -9 3 -22 3 -29 -2z"/>
<path d="M1712 1518 c-15 -15 -16 -38 -2 -38 6 0 10 5 10 11 0 5 4 8 9 5 5 -4
7 3 4 14 -6 24 -6 23 -21 8z"/>
<path d="M1588 1513 c7 -3 16 -2 19 1 4 3 -2 6 -13 5 -11 0 -14 -3 -6 -6z"/>
<path d="M793 1473 c-7 -3 -13 -9 -13 -14 0 -6 5 -7 10 -4 6 4 17 1 25 -5 9
-7 15 -8 15 -2 0 14 -23 30 -37 25z"/>
<path d="M1798 1463 c6 -2 18 -2 25 0 6 3 1 5 -13 5 -14 0 -19 -2 -12 -5z"/>
<path d="M1970 1435 c0 -9 6 -12 15 -9 8 4 15 10 15 15 0 5 -7 9 -15 9 -8 0
-15 -7 -15 -15z"/>
<path d="M1816 1425 c-20 -15 -14 -35 10 -35 8 0 12 5 9 10 -3 6 -2 10 2 10 5
0 17 6 27 13 16 12 15 13 -6 14 -13 1 -31 -4 -42 -12z"/>
<path d="M1900 1405 c0 -14 2 -25 4 -25 2 0 6 11 8 25 3 14 1 25 -3 25 -5 0
-9 -11 -9 -25z"/>
<path d="M1390 1380 c0 -13 7 -20 20 -20 13 0 20 7 20 20 0 13 -7 20 -20 20
-13 0 -20 -7 -20 -20z"/>
<path d="M1503 1393 c-13 -2 -23 -11 -23 -19 0 -10 5 -12 18 -5 9 5 28 14 42
19 20 9 21 11 5 10 -11 0 -30 -3 -42 -5z"/>
<path d="M1580 1374 l-25 -14 28 0 c17 0 27 5 27 15 0 8 -1 15 -2 14 -2 -1
-14 -7 -28 -15z"/>
<path d="M1658 1363 c6 -2 18 -2 25 0 6 3 1 5 -13 5 -14 0 -19 -2 -12 -5z"/>
<path d="M1935 1340 c-12 -13 -14 -20 -5 -20 6 0 10 -6 7 -14 -3 -8 1 -17 9
-20 9 -3 12 -10 9 -16 -10 -17 6 -34 17 -19 7 10 8 4 4 -18 -3 -19 0 -35 7
-42 10 -8 13 3 15 47 2 55 1 58 -28 71 -30 13 -30 14 -14 32 9 10 13 19 7 19
-5 0 -18 -9 -28 -20z"/>
<path d="M1005 1290 c-3 -5 -1 -10 4 -10 6 0 11 5 11 10 0 6 -2 10 -4 10 -3 0
-8 -4 -11 -10z"/>
<path d="M1870 1290 c-8 -5 -10 -10 -5 -10 6 0 17 5 25 10 8 5 11 10 5 10 -5
0 -17 -5 -25 -10z"/>
<path d="M1844 1278 c3 -12 0 -18 -9 -18 -9 0 -15 -9 -14 -22 1 -17 2 -19 6
-5 2 9 11 17 19 17 17 0 18 9 3 30 -9 13 -10 12 -5 -2z"/>
<path d="M1886 1238 c-9 -12 -16 -19 -16 -16 0 4 -16 0 -36 -8 -33 -14 -36
-14 -31 0 5 13 3 14 -13 3 -25 -15 -25 -18 0 -47 12 -13 20 -33 18 -45 -3 -17
-9 -19 -40 -17 -23 2 -38 -1 -38 -7 0 -6 5 -11 10 -11 6 0 10 -5 10 -10 0 -16
-39 12 -42 31 -2 12 -41 -19 -132 -107 l-129 -124 54 1 c30 1 47 3 37 6 -9 2
-19 12 -23 21 -10 26 27 50 72 47 51 -3 57 2 38 31 -14 22 -14 24 2 25 10 1
26 1 35 0 16 -2 34 32 30 57 -4 19 12 14 26 -8 7 -12 16 -19 21 -16 14 9 5
-49 -12 -74 -17 -27 -17 -37 4 -87 13 -32 34 -48 23 -18 -5 11 -2 13 10 9 10
-4 18 0 22 10 4 10 18 16 35 16 16 0 29 4 29 10 0 5 -13 7 -32 3 -22 -4 -29
-3 -24 6 4 7 -2 14 -15 19 -13 5 -18 11 -12 15 6 4 16 0 23 -8 7 -8 17 -15 22
-15 7 0 6 5 -1 13 -6 8 -8 16 -5 20 10 10 64 -14 64 -29 0 -8 4 -14 9 -14 5 0
17 -3 27 -7 12 -4 15 -3 10 5 -5 8 -2 10 9 6 9 -4 13 -9 11 -12 -3 -3 -1 -11
5 -18 12 -14 5 -19 -35 -26 -10 -2 -22 -12 -26 -24 -8 -19 -5 -21 36 -20 37 1
44 4 44 21 0 15 -2 17 -9 6 -5 -8 -11 -9 -15 -3 -3 6 3 13 14 17 11 3 20 11
20 16 0 6 5 7 11 3 8 -4 7 -9 -2 -15 -11 -7 -11 -9 -1 -9 19 0 27 31 11 41
-12 8 -12 10 1 19 12 7 8 12 -20 22 -19 7 -39 11 -44 10 -5 -2 -4 4 3 12 7 8
10 20 6 26 -3 5 -2 10 4 10 5 0 12 -6 14 -12 4 -9 6 -8 6 2 1 10 7 7 21 -10
l20 -25 0 40 c0 29 -3 36 -10 25 -5 -8 -13 -11 -17 -6 -4 4 1 14 12 22 19 14
19 15 -5 31 -39 27 -50 26 -39 -5 6 -15 7 -22 2 -17 -5 6 -19 23 -33 38 l-25
29 40 -8 c22 -4 46 -13 53 -21 17 -17 22 -17 22 3 0 8 -4 13 -10 9 -5 -3 -16
8 -25 25 -8 16 -18 30 -21 30 -2 0 0 -10 7 -21 9 -17 8 -20 -2 -13 -21 12 -60
14 -81 3 -17 -9 -18 -8 -9 10 16 28 15 29 -24 37 -39 7 -48 24 -12 24 13 0 29
6 37 13 8 6 6 1 -5 -12 l-20 -24 34 6 c18 4 37 7 41 7 4 0 10 10 13 21 4 17 3
19 -6 10 -6 -6 -15 -11 -19 -11 -12 0 -9 35 4 48 7 7 9 12 6 12 -4 0 -14 -10
-22 -22z m-38 -138 c18 0 8 -13 -13 -16 -10 -1 -15 6 -14 19 0 12 3 16 6 10 2
-7 12 -13 21 -13z m-51 -16 c-3 -3 -12 -4 -19 -1 -8 3 -5 6 6 6 11 1 17 -2 13
-5z m108 -34 c-3 -5 3 -10 14 -10 25 0 28 -15 5 -24 -8 -3 -12 -2 -9 4 8 13
-1 13 -28 -2 -19 -10 -20 -9 -9 4 10 13 10 17 0 21 -8 3 -5 6 7 6 15 1 16 4 7
13 -7 7 -12 16 -12 21 0 5 7 1 16 -7 8 -9 12 -20 9 -26z m-80 10 c4 -7 13 -6
26 1 18 9 19 8 10 -9 -6 -11 -8 -21 -6 -24 3 -3 -2 -5 -10 -5 -8 0 -17 8 -20
18 -3 10 -14 20 -23 22 -16 4 -16 5 0 6 9 0 20 -4 23 -9z m155 -9 c0 -5 -6
-14 -14 -21 -12 -9 -15 -8 -13 9 1 20 27 31 27 12z m-180 -25 c0 -2 -7 -6 -15
-10 -8 -3 -15 -1 -15 4 0 6 7 10 15 10 8 0 15 -2 15 -4z m-50 -98 c0 -4 8 -8
18 -8 14 0 15 -2 2 -10 -9 -6 -17 -5 -21 2 -4 6 -11 8 -16 5 -5 -3 -10 0 -10
7 0 7 6 13 14 13 7 0 13 -4 13 -9z"/>
<path d="M0 1220 c0 -5 9 -10 20 -10 11 0 20 -4 20 -8 0 -4 9 -8 19 -8 11 0
17 4 14 9 -3 5 4 6 17 2 16 -5 20 -4 15 5 -4 6 -17 9 -30 6 -13 -3 -27 -2 -30
4 -8 13 -45 13 -45 0z"/>
<path d="M970 1226 c0 -2 7 -6 15 -10 8 -3 15 -1 15 4 0 6 -7 10 -15 10 -8 0
-15 -2 -15 -4z"/>
<path d="M1057 1217 c2 -4 -1 -15 -9 -24 -11 -14 -11 -15 7 -5 11 6 28 16 38
24 16 12 15 13 -12 13 -16 1 -27 -3 -24 -8z"/>
<path d="M990 1161 c-7 -11 -17 -18 -22 -15 -4 3 -8 1 -8 -5 0 -6 -7 -8 -15
-5 -10 4 -15 0 -15 -15 0 -18 3 -20 18 -12 36 20 87 70 72 71 -9 0 -22 -9 -30
-19z"/>
<path d="M0 1150 c0 -5 5 -10 10 -10 6 0 10 5 10 10 0 6 -4 10 -10 10 -5 0
-10 -4 -10 -10z"/>
<path d="M1254 1128 c-10 -12 -14 -18 -7 -15 6 4 14 1 16 -5 4 -10 6 -10 6 0
1 6 7 12 14 12 7 0 22 7 33 15 18 14 17 14 -12 15 -19 0 -38 -8 -50 -22z"/>
<path d="M1368 1138 c7 -7 12 -18 12 -24 0 -19 -47 -67 -59 -60 -5 4 -13 -4
-17 -16 -4 -13 -25 -40 -48 -62 -30 -29 -33 -33 -11 -18 57 38 165 144 158
154 -3 6 -1 8 4 5 6 -4 22 2 34 13 l24 19 -54 1 c-43 0 -52 -3 -43 -12z"/>
<path d="M427 1127 c-13 -33 10 -42 99 -39 101 3 151 -9 194 -44 43 -36 62
-79 64 -138 1 -67 -26 -121 -78 -154 -23 -15 -42 -29 -44 -32 -1 -3 -20 -4
-42 -2 -36 4 -40 2 -37 -17 2 -11 7 -24 12 -28 4 -5 5 -2 0 6 -5 9 -3 12 6 9
8 -3 22 -1 32 4 13 6 23 5 35 -4 11 -9 14 -10 8 0 -4 6 -2 12 3 12 15 0 14
-57 -1 -63 -10 -4 -10 -8 1 -15 8 -6 10 -15 6 -22 -5 -9 -4 -11 3 -6 7 4 12
27 12 52 l0 44 64 0 c82 0 96 -6 96 -39 0 -38 -17 -51 -67 -51 -32 0 -43 -4
-43 -15 0 -10 -10 -15 -29 -15 -17 0 -32 -4 -35 -9 -4 -5 4 -7 16 -3 14 3 19
2 14 -6 -9 -16 7 -15 22 0 10 10 11 6 6 -20 -7 -35 6 -59 41 -72 19 -8 19 -8
1 -15 -11 -5 -21 -3 -27 6 -7 12 -9 12 -9 0 0 -10 -3 -11 -14 -2 -11 10 -17 7
-30 -11 -9 -12 -16 -19 -16 -14 0 5 -11 1 -25 -8 -13 -9 -31 -16 -40 -16 -8 0
-15 -5 -15 -11 0 -5 5 -7 11 -3 8 4 8 0 0 -15 -8 -14 -9 -31 -2 -53 l9 -33 2
30 c2 29 2 29 9 5 7 -23 8 -23 15 12 4 21 11 40 16 43 13 8 13 -12 -1 -37 -15
-28 2 -44 31 -28 29 16 37 5 15 -20 -18 -20 -47 -28 -42 -11 1 5 -1 9 -5 10
-5 1 -8 -2 -7 -5 0 -4 -5 -11 -13 -16 -10 -8 -10 -9 2 -5 20 6 72 -21 65 -34
-4 -5 -13 -3 -21 6 -9 8 -20 15 -26 15 -6 0 -1 -9 12 -20 21 -18 25 -19 45 -6
34 22 39 7 7 -22 l-27 -26 25 -7 25 -7 -25 -1 c-24 -2 -24 -2 -6 -16 10 -8 23
-12 27 -9 17 10 9 -9 -8 -22 -17 -13 -17 -14 1 -7 15 5 17 3 10 -8 -12 -20
-14 -38 -3 -45 5 -3 9 1 9 9 0 7 11 19 25 25 23 11 36 0 15 -13 -5 -3 -7 -12
-4 -20 4 -8 10 -12 15 -9 5 3 9 -7 9 -22 0 -27 1 -27 15 -8 17 22 20 38 5 29
-16 -10 -12 12 6 29 17 18 39 22 29 6 -3 -5 0 -10 7 -10 8 -1 5 -7 -7 -16 -14
-12 -16 -18 -7 -21 10 -4 10 -8 2 -18 -10 -11 10 -14 114 -14 120 0 124 1 121
21 -3 11 -1 17 3 14 4 -4 7 -13 7 -19 0 -7 10 -13 23 -15 13 -2 22 2 22 10 0
7 11 26 23 42 17 21 28 27 38 20 34 -21 40 -14 29 36 0 3 -7 -3 -14 -13 -8
-11 -17 -14 -20 -8 -4 5 -2 12 4 16 19 12 10 23 -27 36 -21 7 -45 14 -53 15
-8 1 -28 5 -43 9 -17 3 -26 2 -23 -4 3 -5 -6 -17 -20 -26 -21 -13 -28 -14 -34
-5 -5 7 -15 10 -24 7 -10 -4 -24 1 -35 12 -24 24 -61 37 -61 20 0 -9 -4 -8
-15 1 -8 7 -15 18 -15 24 0 6 5 4 10 -4 8 -13 10 -12 10 3 0 9 5 17 11 17 5 0
7 5 4 10 -3 6 -1 10 6 10 7 0 10 2 7 5 -3 3 -18 1 -34 -5 -23 -9 -31 -8 -40 4
-13 19 -40 21 -47 4 -3 -7 -5 -4 -6 7 0 27 -7 68 -16 94 -4 14 -2 21 6 21 7 0
9 3 5 7 -4 5 -14 0 -21 -10 -9 -12 -15 -15 -20 -7 -5 8 -15 4 -31 -11 -29 -28
-30 -21 -3 27 25 45 43 64 61 64 8 0 7 -4 -4 -11 -10 -5 -18 -15 -18 -21 0 -6
11 -1 25 12 22 21 30 20 26 -2 0 -4 5 -5 13 -2 14 5 15 62 1 99 -7 16 -6 18 6
7 18 -17 30 -15 22 5 -4 11 -3 14 5 9 7 -4 12 -1 12 8 0 19 16 21 23 4 4 -10
7 -10 15 0 7 11 12 10 26 -3 19 -20 21 -41 4 -48 -10 -4 -10 -6 0 -6 19 -1 14
-21 -5 -22 -11 0 -13 -3 -5 -6 6 -2 12 -9 12 -15 0 -6 -7 -8 -15 -4 -12 4 -13
2 -6 -13 12 -22 3 -35 -15 -20 -8 7 -14 7 -19 -1 -3 -6 -11 -7 -17 -4 -6 4 -5
-3 2 -16 13 -25 4 -42 -10 -20 -8 12 -10 10 -10 -7 0 -15 5 -21 13 -17 16 6
19 -28 3 -38 -6 -4 -8 -10 -4 -13 3 -4 16 3 27 14 20 20 21 20 21 2 0 -22 36
-35 44 -15 3 8 11 14 18 14 10 0 10 -2 -1 -9 -9 -6 -2 -8 20 -7 31 1 34 4 34
33 1 17 -3 29 -7 27 -4 -3 -8 -11 -8 -19 0 -8 -5 -17 -10 -20 -13 -8 -42 14
-35 25 3 5 -3 7 -12 5 -10 -1 -17 -9 -15 -16 2 -8 -5 -5 -18 7 -22 22 -19 54
6 54 8 0 14 5 14 10 0 6 5 10 12 10 6 0 3 -9 -7 -20 -10 -11 -13 -20 -7 -20 6
0 19 -3 29 -7 16 -6 16 -5 4 10 -12 15 -12 17 3 11 16 -6 21 4 17 35 -2 7 9 2
25 -12 25 -24 54 -27 54 -5 0 5 5 6 10 3 6 -3 10 4 11 17 l0 23 11 -23 c7 -13
17 -21 25 -18 8 4 13 -3 13 -17 0 -15 3 -18 9 -9 11 18 36 -12 27 -33 -3 -8
-1 -15 5 -15 6 0 9 -6 6 -14 -4 -10 5 -18 25 -25 25 -9 29 -8 24 4 -3 9 3 19
14 25 22 12 27 1 8 -19 -11 -10 -9 -11 5 -5 15 5 17 2 13 -27 -2 -19 -6 -41
-8 -49 -3 -8 -3 -12 -1 -7 3 4 9 7 14 7 6 0 7 -5 3 -12 -5 -8 -2 -9 10 -5 10
4 19 7 22 7 2 0 1 6 -2 14 -8 21 12 28 27 9 10 -12 10 -14 2 -9 -9 5 -13 1
-13 -13 0 -21 13 -35 24 -24 10 11 36 12 36 2 0 -5 -8 -9 -17 -9 -15 0 -16 -2
-3 -10 12 -8 13 -11 1 -19 -9 -6 -10 -10 -2 -12 8 -3 4 -13 -9 -27 -17 -18
-19 -26 -10 -37 7 -8 21 -15 31 -15 12 0 16 -5 13 -15 -11 -28 -45 -10 -58 32
-15 46 -60 34 -51 -14 2 -13 -1 -23 -8 -23 -6 0 -4 -7 5 -17 14 -14 19 -14 33
-3 10 8 19 10 23 4 4 -5 21 -10 39 -12 25 -2 33 1 38 18 4 13 1 28 -9 38 -10
12 -12 22 -6 32 5 8 6 18 3 24 -3 5 -1 6 6 2 6 -4 9 -11 6 -16 -3 -5 -1 -11 5
-15 5 -3 10 -1 10 4 0 18 3 25 21 44 17 19 19 33 7 53 -4 6 -1 11 8 11 8 0 27
-20 42 -44 15 -23 31 -43 36 -43 5 0 15 -8 22 -17 12 -16 13 -16 14 -2 0 9 -7
22 -15 29 -13 11 -13 14 2 27 13 10 15 16 5 19 -6 3 -9 11 -5 17 4 7 0 8 -13
4 -18 -7 -18 -6 -2 6 14 11 15 16 5 27 -10 10 -9 12 6 7 9 -4 17 -2 17 3 0 6
-4 10 -10 10 -5 0 -10 8 -10 18 0 9 4 13 8 7 4 -5 13 -10 20 -11 6 -1 17 -2
22 -2 6 -1 10 -17 10 -36 0 -39 12 -51 37 -38 11 6 27 5 48 -4 18 -7 36 -10
41 -6 5 4 2 -2 -6 -12 -14 -18 -14 -19 4 -9 10 6 28 8 40 6 18 -4 18 -2 -4 11
-14 8 -24 17 -22 20 8 21 -1 33 -22 31 -18 -2 -23 1 -19 11 4 10 -3 14 -22 14
-19 0 -26 -4 -22 -13 3 -8 2 -19 -2 -26 -10 -16 -29 6 -34 39 -4 22 -33 42
-49 33 -5 -2 -8 4 -8 15 0 37 -39 54 -87 38 -26 -8 -20 -40 6 -33 11 2 21 -5
28 -20 10 -22 10 -24 -5 -18 -14 5 -15 4 -4 -6 20 -21 14 -30 -15 -25 -16 2
-29 5 -30 6 -2 2 -8 3 -15 4 -14 1 -30 56 -17 56 6 0 7 5 4 10 -3 6 -3 10 2
10 4 0 9 14 10 31 2 29 1 30 -26 24 -35 -7 -44 5 -31 39 6 18 6 26 -1 26 -6 0
-7 5 -4 10 3 6 0 10 -7 10 -8 0 -6 5 5 11 24 14 22 56 -3 64 -12 4 -28 1 -36
-6 -11 -9 -18 -8 -32 5 -10 9 -33 16 -50 16 -18 0 -32 4 -32 8 0 4 29 8 65 8
36 0 65 -4 65 -9 0 -5 7 -6 15 -3 8 3 22 9 32 13 12 5 14 3 8 -7 -5 -8 -4 -11
3 -6 6 3 13 2 16 -3 3 -5 15 -7 25 -4 32 8 13 33 -26 33 l-34 0 3 63 3 62 35
5 35 6 -25 13 c-22 12 -106 76 -120 91 -3 3 -32 28 -65 54 -33 27 -59 53 -57
57 3 12 -15 11 -23 -1 -4 -6 -12 -7 -18 -4 -38 21 33 -38 190 -159 23 -17 42
-34 43 -37 0 -3 -19 -4 -42 -2 -32 3 -58 15 -100 48 -62 48 -68 51 -68 29 0
-8 -6 -15 -12 -15 -7 -1 1 -7 17 -14 17 -8 39 -21 50 -30 19 -14 13 -15 -80
-17 -55 -1 -107 -1 -115 0 -11 1 -11 -1 3 -9 24 -15 21 -41 -8 -72 -14 -15
-25 -37 -25 -48 0 -19 -5 -21 -67 -18 l-68 3 -2 58 c-2 54 -1 57 23 57 21 0
24 -4 24 -41 0 -40 1 -40 33 -38 46 4 57 13 22 19 -22 4 -30 11 -30 25 0 11
-4 23 -9 26 -5 4 1 10 13 14 48 15 3 25 -112 25 l-121 0 32 33 c32 33 62 92
62 124 1 17 140 136 174 149 8 3 40 -15 74 -41 37 -29 65 -44 73 -40 8 6 4 12
-15 22 -31 16 -33 29 -6 45 11 7 20 17 20 22 0 5 -11 -1 -25 -14 l-24 -23 -46
37 -45 38 -91 -72 c-49 -40 -91 -71 -92 -69 -18 30 -31 87 -31 142 l-1 67
-176 0 c-139 0 -178 -3 -182 -13z m313 -27 c-13 -8 -12 -10 3 -10 11 0 17 -8
17 -22 l0 -21 -25 23 c-24 23 -20 40 10 40 6 0 3 -5 -5 -10z m597 -411 c35
-13 39 -20 42 -72 l2 -43 -63 -2 c-69 -2 -79 2 -97 36 -22 42 15 86 76 91 6 1
24 -4 40 -10z m-154 -49 c33 -62 34 -70 2 -70 -14 0 -25 5 -25 10 0 6 -16 10
-35 10 -19 0 -35 -4 -35 -10 0 -5 -11 -10 -25 -10 -31 0 -31 8 0 70 23 45 29
50 58 50 29 0 36 -6 60 -50z m25 -96 c2 -1 -1 -10 -7 -21 -5 -10 -12 -26 -15
-37 -5 -14 -12 -17 -31 -12 -14 4 -29 1 -37 -7 -10 -12 -15 -12 -26 0 -8 7
-11 20 -8 28 8 21 -21 19 -32 -1 -11 -19 -19 -9 -26 29 -6 32 -4 32 35 11 32
-16 55 -11 29 7 -13 8 -12 11 3 23 16 13 25 12 65 -2 26 -9 48 -17 50 -18z
m-414 -27 c14 -22 -6 -43 -31 -32 -17 8 -17 8 0 12 9 3 17 8 17 13 0 5 -7 7
-15 4 -15 -6 -21 7 -8 20 10 9 25 3 37 -17z m219 -31 c7 4 4 -1 -5 -11 -20
-22 -32 -16 -21 11 4 11 8 13 11 6 2 -7 9 -9 15 -6z m59 -38 c-6 -24 -21 -33
-17 -11 2 10 4 29 5 43 1 23 2 23 9 5 4 -11 6 -28 3 -37z m221 30 c-4 -19 -3
-20 6 -8 6 8 11 12 12 8 1 -5 3 -11 4 -15 2 -5 6 -18 10 -30 4 -13 12 -20 17
-17 6 4 5 -3 -1 -15 -9 -17 -9 -20 2 -15 8 3 17 -2 21 -11 5 -14 1 -16 -27
-10 -21 4 -27 3 -19 -3 8 -5 15 -22 16 -38 3 -35 27 -94 38 -94 4 0 8 -7 8
-15 0 -8 -4 -15 -9 -15 -10 0 -41 56 -41 74 0 15 -26 36 -75 61 -46 23 -70 62
-53 83 10 11 15 9 31 -10 l19 -23 -6 25 c-4 19 0 29 15 38 11 7 17 17 14 22
-7 11 2 30 15 30 4 0 6 -10 3 -22z m-81 -170 c-7 -7 -10 -5 -7 8 5 29 6 30 12
16 3 -8 1 -18 -5 -24z m-420 -160 c-14 -14 -16 -32 -3 -23 5 3 12 1 16 -5 3
-5 4 -10 1 -10 -2 0 -11 -3 -19 -6 -9 -3 -14 1 -12 13 2 26 16 55 23 48 3 -3
0 -11 -6 -17z m648 1 c0 -5 -4 -9 -10 -9 -5 0 -10 7 -10 16 0 8 5 12 10 9 6
-3 10 -10 10 -16z m-584 -28 c9 7 14 8 14 1 0 -5 10 -8 23 -6 12 2 8 -1 -10
-8 -18 -7 -42 -21 -54 -32 -22 -18 -22 -18 -14 0 4 11 10 28 13 39 3 12 7 14
10 7 3 -10 7 -10 18 -1z m282 -86 c-3 -3 -9 2 -12 12 -6 14 -5 15 5 6 7 -7 10
-15 7 -18z"/>
<path d="M1267 643 c-10 -9 13 -33 32 -32 10 0 11 2 4 6 -18 7 -16 21 5 26 11
3 8 5 -9 6 -14 0 -29 -2 -32 -6z"/>
<path d="M1120 635 c0 -8 4 -15 10 -15 5 0 7 7 4 15 -4 8 -8 15 -10 15 -2 0
-4 -7 -4 -15z"/>
<path d="M1205 411 c-3 -5 -2 -12 3 -15 5 -3 9 1 9 9 0 17 -3 19 -12 6z"/>
<path d="M1270 405 c0 -8 2 -15 4 -15 2 0 6 7 10 15 3 8 1 15 -4 15 -6 0 -10
-7 -10 -15z"/>
<path d="M1985 1130 c-3 -5 -1 -10 4 -10 6 0 11 5 11 10 0 6 -2 10 -4 10 -3 0
-8 -4 -11 -10z"/>
<path d="M1940 966 c0 -2 7 -7 16 -10 8 -3 12 -2 9 4 -6 10 -25 14 -25 6z"/>
<path d="M1640 945 c-16 -19 0 -19 26 0 16 12 16 14 3 15 -9 0 -22 -7 -29 -15z"/>
<path d="M995 940 c-4 -6 -3 -10 2 -9 20 3 34 -2 54 -22 11 -11 23 -18 26 -15
7 7 -49 55 -64 56 -6 0 -15 -5 -18 -10z"/>
<path d="M359 917 c-8 -17 -17 -23 -30 -20 -10 3 -19 0 -19 -6 0 -8 46 -11
163 -9 136 3 162 5 162 18 0 12 -23 16 -121 21 -67 4 -127 10 -133 13 -6 4
-16 -3 -22 -17z"/>
<path d="M1561 924 c0 -11 3 -14 6 -6 3 7 2 16 -1 19 -3 4 -6 -2 -5 -13z"/>
<path d="M110 923 c0 -6 25 -28 53 -44 13 -7 17 -6 17 4 0 7 -16 21 -35 30
-19 9 -35 14 -35 10z"/>
<path d="M254 909 c-13 -22 12 -27 46 -9 29 16 31 19 13 20 -12 0 -25 -4 -28
-10 -3 -5 -11 -10 -16 -10 -6 0 -7 5 -4 10 3 6 4 10 1 10 -3 0 -8 -5 -12 -11z"/>
<path d="M907 893 c-4 -3 -7 -18 -6 -32 0 -15 3 -20 6 -11 3 8 12 23 21 33 13
15 13 17 0 17 -8 0 -18 -3 -21 -7z"/>
<path d="M1796 875 c-6 -16 3 -19 28 -9 22 8 20 24 -3 24 -10 0 -21 -7 -25
-15z"/>
<path d="M1106 873 c-12 -13 -5 -21 26 -32 17 -6 32 -10 33 -9 5 7 -53 47 -59
41z"/>
<path d="M1856 863 c-6 -14 -5 -15 5 -6 7 7 10 15 7 18 -3 3 -9 -2 -12 -12z"/>
<path d="M210 854 c0 -8 5 -12 10 -9 6 4 8 11 5 16 -9 14 -15 11 -15 -7z"/>
<path d="M2 761 c1 -69 4 -81 17 -76 12 5 12 2 -2 -13 -9 -10 -17 -26 -17 -35
0 -18 16 -32 22 -18 1 4 14 11 28 15 14 3 19 3 12 0 -18 -8 -15 -35 3 -28 18
7 20 -17 4 -33 -8 -8 1 -12 31 -15 42 -4 52 2 57 36 3 16 1 17 -13 5 -15 -12
-17 -12 -12 1 3 8 -2 20 -10 26 -11 8 -12 16 -5 28 16 29 2 76 -34 112 -30 30
-37 33 -51 22 -13 -11 -15 -11 -10 2 3 9 0 24 -8 35 -12 16 -14 8 -12 -64z"/>
<path d="M1976 832 c-3 -6 -1 -14 5 -17 15 -10 25 3 12 16 -7 7 -13 7 -17 1z"/>
<path d="M236 820 c7 -8 14 -24 17 -35 4 -19 5 -19 6 1 0 12 -7 28 -16 35 -16
12 -17 12 -7 -1z"/>
<path d="M860 785 l-23 -25 36 0 c20 0 37 5 37 10 0 6 -5 10 -11 10 -6 0 -9 7
-5 15 8 23 -8 18 -34 -10z"/>
<path d="M1742 755 l-2 -40 -126 2 c-139 2 -152 -4 -118 -55 l18 -27 6 30 c4
21 11 30 25 30 18 0 20 -7 20 -65 0 -36 4 -68 9 -72 17 -12 -23 -40 -49 -34
-19 5 -23 3 -19 -9 4 -8 18 -16 33 -17 14 0 31 -2 36 -2 20 -3 35 -18 35 -36
0 -19 17 -36 27 -27 3 3 -4 19 -16 36 -14 19 -18 32 -11 36 6 4 14 5 17 2 3
-3 18 3 35 13 16 10 38 16 48 13 10 -3 21 1 25 8 5 8 4 10 -3 5 -7 -4 -12 -2
-12 4 0 6 17 9 44 6 30 -3 49 0 56 9 8 10 18 11 35 5 15 -6 27 -6 30 0 6 9 -4
12 -52 14 -23 1 -46 32 -37 49 4 6 4 9 -1 5 -12 -11 -35 11 -28 28 3 8 0 14
-5 14 -6 0 -13 26 -15 58 -2 41 -4 46 -5 17z m-39 -64 c26 -1 37 -5 37 -16 0
-11 -13 -15 -47 -17 l-48 -2 48 -3 c33 -3 47 -8 47 -19 0 -10 -14 -15 -47 -16
l-48 -2 48 -3 c39 -3 47 -8 47 -24 0 -17 -7 -19 -70 -19 l-70 0 0 58 c0 32 2
61 5 63 2 3 17 4 32 3 15 -1 45 -3 66 -3z m71 -105 c-5 -14 -9 -15 -15 -5 -5
8 -3 17 4 21 15 9 19 4 11 -16z"/>
<path d="M1926 750 c-48 -51 -46 -65 9 -79 24 -6 49 -19 54 -29 8 -13 10 1 11
53 0 58 -3 72 -19 82 -16 10 -24 6 -55 -27z"/>
<path d="M267 707 c-3 -8 5 -12 24 -11 27 1 54 13 33 15 -5 0 -19 2 -31 5 -11
2 -23 -2 -26 -9z"/>
<path d="M373 707 c-3 -6 -2 -8 3 -4 5 3 14 -5 20 -18 9 -19 9 -25 -2 -29 -18
-7 -18 -30 0 -46 30 -24 7 -40 -60 -40 -58 0 -66 2 -74 23 -10 24 -11 23 -15
-12 -2 -24 17 -55 27 -45 3 3 3 -7 0 -22 -4 -22 -2 -26 11 -21 13 5 14 2 7
-16 -4 -12 -13 -21 -19 -20 -15 4 -13 -8 4 -31 13 -17 13 -21 -5 -33 -11 -8
-20 -20 -20 -26 0 -7 -8 -20 -17 -29 -20 -19 -31 -32 -56 -68 -9 -13 -17 -20
-17 -14 0 5 4 14 9 20 23 24 21 52 -6 83 -50 59 -76 81 -93 81 -10 0 -23 7
-30 15 -7 8 -17 12 -22 9 -11 -7 -7 28 5 37 10 7 -2 59 -14 59 -15 0 -11 -337
4 -343 10 -4 10 -6 0 -6 -7 -1 -13 -5 -13 -10 0 -5 10 -7 23 -4 20 4 20 3 4
-7 -9 -6 -15 -15 -12 -21 4 -5 1 -9 -4 -9 -6 0 -11 -5 -11 -10 0 -7 7 -7 20 0
11 6 18 15 15 21 -4 5 0 9 7 9 18 1 95 60 78 60 -7 0 -11 2 -9 5 10 10 49 -8
49 -24 1 -9 12 3 26 26 14 24 30 43 35 43 5 0 9 7 9 15 0 8 7 15 16 15 8 0 12
5 9 10 -3 6 0 17 9 25 17 18 30 20 20 3 -4 -7 -3 -8 4 -4 7 4 12 20 12 35 0
28 34 70 47 58 3 -4 2 -7 -4 -7 -6 0 -13 -7 -17 -15 -4 -13 -2 -14 14 -5 16 8
18 8 14 -4 -3 -9 -14 -18 -24 -21 -10 -3 -21 -19 -25 -35 -5 -21 -11 -27 -22
-23 -12 5 -14 1 -8 -17 6 -20 4 -22 -14 -17 -18 4 -20 3 -10 -9 10 -12 17 -11
45 11 18 14 36 25 40 25 4 0 -1 -6 -11 -14 -18 -13 -17 -14 8 -11 15 2 25 0
22 -5 -3 -5 1 -11 7 -13 8 -3 6 -6 -4 -6 -10 -1 -18 -4 -19 -8 0 -5 -2 -23 -5
-40 -3 -25 0 -33 11 -33 8 0 15 4 15 9 0 14 27 7 49 -13 17 -15 23 -16 36 -6
12 10 15 9 15 -5 0 -10 -3 -15 -7 -12 -11 12 -33 -14 -33 -39 0 -13 -4 -24 -9
-24 -19 0 -24 -43 -7 -56 16 -11 15 -13 -6 -28 -26 -19 -48 -5 -29 18 23 28 0
40 -25 13 -13 -14 -37 -28 -53 -32 -67 -14 -41 -26 53 -23 53 2 95 6 94 10 -2
4 5 13 15 20 10 8 19 20 20 28 2 8 6 21 10 28 5 7 4 12 -2 12 -15 0 -14 20 2
53 8 19 17 25 30 21 21 -7 23 12 2 20 -8 3 -15 12 -15 20 0 10 -7 12 -22 8
-14 -3 -19 -2 -14 6 4 7 2 12 -3 12 -6 0 -11 -5 -11 -11 0 -5 -4 -7 -10 -4
-16 10 -12 33 8 38 13 4 11 5 -5 6 -13 0 -25 0 -28 -1 -2 -2 -12 7 -20 20 -15
20 -15 24 1 39 25 25 61 28 68 5 4 -11 3 -27 0 -37 -6 -15 -3 -17 19 -12 16 5
27 2 30 -6 10 -23 27 17 21 48 -8 38 4 28 16 -14 4 -17 5 -33 1 -36 -5 -2 -6
-16 -3 -30 3 -20 1 -24 -12 -19 -18 7 -22 -6 -6 -22 5 -5 11 -22 12 -37 2 -28
12 -35 23 -17 3 6 13 10 21 10 8 0 14 -4 14 -10 0 -5 -6 -10 -14 -10 -21 0
-28 -17 -10 -24 8 -3 12 -2 9 4 -3 6 1 7 9 4 9 -3 16 -8 16 -11 0 -7 -90 -93
-94 -90 -2 1 -7 -1 -11 -5 -13 -13 23 -2 41 12 16 13 17 13 12 -2 -4 -10 -1
-19 8 -22 27 -10 36 -7 30 11 -4 10 -4 14 0 10 4 -4 14 -1 23 5 13 10 14 10 4
-2 -18 -20 -16 -35 2 -20 10 9 15 9 15 1 0 -13 26 -15 34 -2 10 15 -13 63 -26
55 -8 -5 -9 2 -5 24 4 17 2 34 -3 37 -15 10 -12 25 6 25 8 0 12 5 9 10 -3 6
-19 10 -35 10 -16 0 -30 7 -34 16 -5 13 -9 14 -21 4 -12 -10 -15 -9 -15 4 0 9
5 16 11 16 6 0 9 6 6 13 -2 6 2 26 9 43 7 17 11 39 10 50 -2 10 1 27 6 37 10
20 2 57 -13 57 -5 0 -18 -9 -29 -20 -11 -11 -20 -17 -20 -12 0 13 15 28 33 35
13 5 16 11 9 24 -5 10 -7 24 -5 31 3 6 0 12 -5 12 -10 0 5 52 21 78 6 8 2 12
-12 12 -11 0 -23 5 -26 10 -12 20 -25 9 -19 -15 5 -21 3 -25 -15 -25 -24 0
-25 4 -11 31 9 16 7 19 -10 19 -11 0 -20 -4 -20 -10 0 -5 -7 -10 -16 -10 -8 0
-12 -5 -9 -10 18 -30 -49 -50 -100 -30 -35 13 -23 30 23 30 34 0 39 5 70 56
17 31 32 60 32 65 0 5 14 10 30 10 17 1 35 3 40 4 6 1 16 3 23 4 6 1 3 6 -8
10 -29 12 -174 10 -182 -2z m127 -211 c-6 -6 -10 -16 -10 -24 0 -12 3 -12 15
-2 21 17 19 7 -4 -18 -10 -12 -20 -19 -23 -17 -2 3 -5 -2 -5 -10 0 -8 4 -15 8
-15 4 0 5 -9 2 -20 -4 -16 0 -20 17 -20 13 0 20 -5 18 -12 -8 -24 -41 -13 -57
19 -13 26 -20 31 -39 26 -20 -5 -23 -2 -20 13 2 11 -3 24 -10 30 -13 9 -12 15
3 37 9 15 22 27 27 27 7 0 6 -5 -1 -13 -8 -10 -7 -14 4 -14 8 0 15 9 15 21 0
15 3 17 9 8 7 -11 9 -11 14 2 6 14 10 14 27 4 13 -8 16 -16 10 -22z m30 -86
c0 -5 -4 -10 -10 -10 -5 0 -10 5 -10 10 0 6 5 10 10 10 6 0 10 -4 10 -10z"/>
<path d="M750 650 c0 -5 16 -10 36 -10 21 0 33 4 29 10 -3 6 -19 10 -36 10
-16 0 -29 -4 -29 -10z"/>
<path d="M1921 650 c-8 -4 -21 -6 -29 -2 -9 3 -13 1 -9 -5 4 -6 4 -13 0 -16
-5 -2 -2 -2 5 -1 7 2 15 -3 18 -11 4 -8 10 -12 16 -9 5 3 7 12 4 19 -3 8 0 16
7 18 7 2 10 7 7 10 -3 3 -12 2 -19 -3z"/>
<path d="M500 640 c0 -5 5 -10 11 -10 5 0 7 5 4 10 -3 6 -8 10 -11 10 -2 0 -4
-4 -4 -10z"/>
<path d="M575 620 c9 -17 24 -30 34 -30 11 0 22 -6 24 -12 3 -8 6 -5 6 5 1 10
6 15 11 12 6 -3 10 3 10 14 0 12 -4 21 -10 21 -5 0 -10 -5 -10 -11 0 -6 -13
-1 -29 10 -42 30 -55 27 -36 -9z"/>
<path d="M320 630 c0 -5 5 -10 11 -10 5 0 7 5 4 10 -3 6 -8 10 -11 10 -2 0 -4
-4 -4 -10z"/>
<path d="M1457 623 c-12 -19 18 -58 48 -61 l29 -4 -22 19 c-12 10 -28 27 -35
37 -8 10 -17 15 -20 9z"/>
<path d="M640 551 c0 -6 5 -13 10 -16 6 -3 10 1 10 9 0 9 -4 16 -10 16 -5 0
-10 -4 -10 -9z"/>
<path d="M1908 553 c-22 -5 -22 -10 -3 -29 8 -9 19 -12 25 -9 5 3 10 1 10 -4
0 -6 12 -11 26 -11 16 0 24 5 21 13 -2 6 -10 11 -16 10 -6 -2 -11 3 -11 11 0
11 -26 30 -33 25 -1 -1 -10 -3 -19 -6z"/>
<path d="M1790 523 c0 -13 8 -18 30 -18 17 0 30 3 30 8 0 4 -7 7 -15 7 -8 0
-15 5 -15 10 0 6 -7 10 -15 10 -8 0 -15 -8 -15 -17z"/>
<path d="M695 510 c-16 -7 -17 -9 -3 -9 9 -1 20 4 23 9 7 11 7 11 -20 0z"/>
<path d="M908 513 c7 -3 16 -2 19 1 4 3 -2 6 -13 5 -11 0 -14 -3 -6 -6z"/>
<path d="M1449 513 c-1 -5 -1 -12 0 -17 1 -5 -7 -6 -19 -3 -16 4 -20 0 -19
-16 0 -12 3 -16 6 -9 2 6 9 12 14 12 6 0 7 -5 3 -12 -5 -8 -2 -9 9 -5 10 3 17
2 17 -4 0 -6 4 -8 9 -5 5 3 14 -1 21 -9 11 -14 15 -14 36 0 22 14 23 14 17 -2
-6 -15 -5 -16 9 -3 15 14 15 17 1 32 -15 17 -39 15 -28 -2 4 -7 -25 -25 -30
-18 -17 21 -23 46 -13 56 9 9 7 12 -10 12 -12 0 -23 -3 -23 -7z"/>
<path d="M1950 442 c0 -13 38 -23 46 -11 3 5 1 9 -5 9 -5 0 -16 3 -25 6 -9 3
-16 2 -16 -4z"/>
<path d="M1655 430 c-3 -5 0 -10 9 -10 8 0 16 -6 19 -12 2 -7 8 -10 12 -6 4 4
0 14 -8 23 -18 18 -24 19 -32 5z"/>
<path d="M1711 404 c0 -11 3 -14 6 -6 3 7 2 16 -1 19 -3 4 -6 -2 -5 -13z"/>
<path d="M1540 395 c0 -8 2 -15 4 -15 2 0 6 7 10 15 3 8 1 15 -4 15 -6 0 -10
-7 -10 -15z"/>
<path d="M1838 363 c26 -23 30 -31 20 -41 -9 -9 -9 -12 4 -12 20 0 29 35 14
53 -6 8 -24 17 -41 21 l-30 6 33 -27z"/>
<path d="M838 313 c7 -3 16 -2 19 1 4 3 -2 6 -13 5 -11 0 -14 -3 -6 -6z"/>
<path d="M1640 295 c13 -14 25 -25 27 -25 9 0 -33 49 -41 50 -5 0 1 -11 14
-25z"/>
<path d="M1078 303 c-10 -3 -18 -10 -18 -16 1 -13 30 -55 30 -43 0 5 7 3 15
-4 19 -16 19 -1 0 24 -11 14 -12 22 -4 27 15 9 -1 17 -23 12z"/>
<path d="M1694 291 c10 -10 27 -22 39 -25 18 -4 16 -1 -8 19 -36 29 -55 33
-31 6z"/>
<path d="M298 283 c7 -3 16 -2 19 1 4 3 -2 6 -13 5 -11 0 -14 -3 -6 -6z"/>
<path d="M497 259 c7 -7 15 -10 18 -7 3 3 -2 9 -12 12 -14 6 -15 5 -6 -5z"/>
<path d="M1010 261 c0 -5 -10 -11 -22 -15 -22 -5 -22 -6 -3 -20 11 -9 28 -16
38 -16 9 0 17 -4 17 -9 0 -5 7 -11 15 -15 9 -3 15 0 15 10 0 9 -9 18 -21 21
-14 4 -19 12 -16 24 3 10 -1 20 -9 23 -8 3 -14 2 -14 -3z"/>
<path d="M1155 260 c-3 -5 -4 -14 0 -19 3 -5 1 -12 -5 -16 -6 -4 -8 -11 -4
-16 3 -6 10 -6 17 -1 7 5 19 8 28 7 11 -2 14 4 11 26 -4 29 -33 41 -47 19z"/>
<path d="M223 206 c-28 -30 -79 -54 -90 -43 -2 3 -5 14 -6 26 -1 22 -12 28
-22 11 -3 -5 -1 -10 4 -10 6 0 11 -4 11 -9 0 -5 -11 -8 -24 -7 -17 2 -35 -7
-58 -32 -29 -31 -30 -34 -11 -29 14 3 27 -1 35 -11 8 -9 8 -13 2 -9 -7 4 -14
0 -18 -8 -4 -10 1 -15 16 -15 16 0 18 -3 9 -14 -10 -12 -5 -14 31 -10 24 3 45
10 46 15 2 5 10 9 18 9 12 0 19 19 15 43 -1 5 3 6 9 2 5 -3 23 3 39 15 31 21
48 69 34 94 -7 12 -14 8 -40 -18z m-129 -59 c4 4 4 -1 0 -11 -5 -14 -9 -15
-15 -4 -7 10 -9 8 -9 -6 0 -14 -3 -16 -13 -7 -8 6 -18 7 -23 3 -5 -4 0 3 10
15 13 16 23 20 31 13 6 -5 15 -7 19 -3z m6 -68 c0 -6 7 -9 15 -5 8 3 15 1 15
-4 0 -6 -4 -10 -9 -10 -5 0 -16 -2 -23 -5 -9 -4 -14 2 -15 15 -1 11 2 20 8 20
5 0 9 -5 9 -11z"/>
<path d="M934 227 c-8 -21 -3 -29 13 -19 8 5 9 13 3 22 -7 12 -10 12 -16 -3z"/>
<path d="M650 206 c0 -8 4 -17 9 -20 10 -7 23 19 14 28 -11 11 -23 6 -23 -8z"/>
<path d="M1200 190 c8 -5 20 -10 25 -10 6 0 3 5 -5 10 -8 5 -19 10 -25 10 -5
0 -3 -5 5 -10z"/>
<path d="M1619 119 c33 -30 62 -35 67 -11 1 7 0 8 -2 3 -7 -13 -34 -2 -34 14
0 11 -29 25 -55 25 -5 0 6 -14 24 -31z"/>
<path d="M1985 130 c3 -5 8 -10 11 -10 2 0 4 5 4 10 0 6 -5 10 -11 10 -5 0 -7
-4 -4 -10z"/>
<path d="M1760 124 c0 -6 39 -44 45 -44 3 0 1 8 -4 19 -6 10 -8 20 -6 23 2 2
-5 4 -15 5 -11 1 -20 0 -20 -3z"/>
<path d="M707 107 c-3 -9 -2 -19 4 -23 15 -9 18 -2 9 20 -6 17 -7 18 -13 3z"/>
<path d="M1820 93 c0 -13 5 -23 10 -23 13 0 13 11 0 30 -8 12 -10 11 -10 -7z"/>
<path d="M1586 91 c-3 -5 1 -14 8 -20 12 -10 13 -8 9 8 -6 23 -9 25 -17 12z"/>
<path d="M180 61 c-24 -16 -48 -28 -54 -27 -6 2 -8 1 -4 -1 4 -2 4 -11 1 -19
-4 -11 5 -14 41 -14 33 0 44 4 40 13 -2 7 5 22 16 34 21 23 26 43 12 43 -5 0
-28 -13 -52 -29z"/>
<path d="M1446 65 c4 -9 0 -15 -10 -15 -9 0 -16 -5 -16 -11 0 -5 6 -7 13 -3 8
5 7 2 -2 -9 -8 -10 -11 -20 -7 -24 3 -4 13 2 21 13 13 16 14 16 9 2 -5 -15 0
-18 31 -18 39 0 39 2 -2 49 -29 33 -46 41 -37 16z"/>
<path d="M1725 70 c-3 -5 1 -10 10 -10 9 0 13 5 10 10 -3 6 -8 10 -10 10 -2 0
-7 -4 -10 -10z"/>
<path d="M850 59 c0 -5 5 -7 10 -4 6 3 10 8 10 11 0 2 -4 4 -10 4 -5 0 -10 -5
-10 -11z"/>
<path d="M1533 46 c9 -10 17 -24 17 -32 0 -12 14 -14 66 -13 45 1 62 5 55 12
-30 30 7 28 42 -1 16 -14 19 -14 35 2 15 15 15 18 2 26 -20 13 -40 12 -40 -1
0 -8 -4 -8 -14 0 -20 17 -62 7 -58 -13 3 -15 -1 -15 -35 2 -21 11 -49 23 -63
27 -23 7 -23 7 -7 -9z"/>
<path d="M1901 36 c-1 -12 -6 -16 -17 -12 -9 3 -12 2 -9 -5 4 -6 13 -8 21 -5
8 3 14 1 14 -4 0 -5 6 -7 14 -4 8 3 12 12 9 21 -4 11 -8 12 -13 2 -6 -8 -9 -6
-13 7 -4 18 -5 18 -6 0z"/>
<path d="M1180 18 c0 -4 7 -8 15 -8 8 0 15 4 15 8 0 5 -7 9 -15 9 -8 0 -15 -4
-15 -9z"/>
<path d="M1810 10 c0 -5 5 -10 11 -10 5 0 7 5 4 10 -3 6 -8 10 -11 10 -2 0 -4
-4 -4 -10z"/>
</g>
</svg>
